<svg width="300" height="300" viewBox="0 0 300 300" fill="none" xmlns="http://www.w3.org/2000/svg">
<rect width="300" height="300" fill="black"/>
<path d="M257.957 176.673V123.655H268.757V169.342H281.193V176.673H257.957Z" fill="white"/>
<path d="M235.04 177.393C231.025 177.393 227.905 176.717 225.68 175.364C223.454 173.967 221.883 171.982 220.967 169.407C220.094 166.789 219.658 163.626 219.658 159.917V123.655H230.327V161.422C230.327 162.731 230.414 164.018 230.589 165.284C230.807 166.549 231.243 167.575 231.898 168.36C232.596 169.146 233.643 169.538 235.04 169.538C236.48 169.538 237.527 169.146 238.182 168.36C238.88 167.575 239.316 166.549 239.491 165.284C239.665 164.018 239.752 162.731 239.752 161.422V123.655H250.422V159.917C250.422 163.626 249.963 166.789 249.047 169.407C248.174 171.982 246.625 173.967 244.4 175.364C242.174 176.717 239.054 177.393 235.04 177.393Z" fill="white"/>
<path d="M197.196 177.393C193.312 177.393 190.236 176.694 187.967 175.298C185.698 173.902 184.061 171.916 183.058 169.342C182.098 166.724 181.618 163.604 181.618 159.982V140.215C181.618 136.593 182.098 133.495 183.058 130.92C184.061 128.345 185.698 126.382 187.967 125.029C190.236 123.676 193.312 123 197.196 123C201.123 123 204.221 123.698 206.49 125.095C208.803 126.447 210.44 128.411 211.4 130.985C212.403 133.516 212.905 136.593 212.905 140.215V159.982C212.905 163.604 212.403 166.724 211.4 169.342C210.44 171.916 208.803 173.902 206.49 175.298C204.221 176.694 201.123 177.393 197.196 177.393ZM197.196 169.604C198.592 169.604 199.618 169.298 200.272 168.687C200.927 168.033 201.363 167.182 201.581 166.134C201.8 165.044 201.909 163.887 201.909 162.665V137.596C201.909 136.375 201.8 135.24 201.581 134.193C201.363 133.145 200.927 132.316 200.272 131.705C199.618 131.051 198.592 130.724 197.196 130.724C195.887 130.724 194.905 131.051 194.251 131.705C193.596 132.316 193.16 133.145 192.941 134.193C192.723 135.24 192.614 136.375 192.614 137.596V162.665C192.614 163.887 192.701 165.044 192.876 166.134C193.094 167.182 193.53 168.033 194.185 168.687C194.84 169.298 195.843 169.604 197.196 169.604Z" fill="white"/>
<path d="M153.703 176.673V123.655H176.808V131.117H164.503V145.189H173.994V152.717H164.503V169.342H176.939V176.673H153.703Z" fill="white"/>
<path d="M134.402 177.393C131.129 177.393 128.402 176.804 126.22 175.625C124.038 174.404 122.38 172.593 121.245 170.193C120.154 167.749 119.522 164.651 119.347 160.898L128.642 159.327C128.729 161.509 128.947 163.342 129.296 164.825C129.689 166.265 130.256 167.356 130.998 168.098C131.783 168.796 132.743 169.145 133.878 169.145C135.274 169.145 136.212 168.709 136.692 167.836C137.216 166.964 137.478 165.96 137.478 164.825C137.478 162.6 136.932 160.745 135.842 159.262C134.794 157.734 133.398 156.207 131.652 154.68L126.154 149.902C124.191 148.244 122.576 146.367 121.311 144.273C120.089 142.178 119.478 139.604 119.478 136.549C119.478 132.185 120.743 128.847 123.274 126.535C125.849 124.178 129.362 123 133.812 123C136.474 123 138.656 123.436 140.358 124.309C142.06 125.182 143.369 126.36 144.285 127.844C145.245 129.284 145.9 130.876 146.249 132.622C146.642 134.324 146.882 136.025 146.969 137.727L137.74 139.102C137.652 137.487 137.5 136.069 137.282 134.847C137.107 133.625 136.714 132.665 136.103 131.967C135.536 131.269 134.663 130.92 133.485 130.92C132.22 130.92 131.282 131.4 130.671 132.36C130.06 133.276 129.754 134.302 129.754 135.436C129.754 137.313 130.169 138.862 130.998 140.084C131.871 141.262 133.049 142.505 134.532 143.815L139.9 148.527C142.125 150.447 144.023 152.651 145.594 155.138C147.209 157.582 148.016 160.614 148.016 164.236C148.016 166.724 147.449 168.971 146.314 170.978C145.18 172.985 143.587 174.556 141.536 175.691C139.529 176.825 137.151 177.393 134.402 177.393Z" fill="white"/>
<path d="M97.7359 177.393C93.8522 177.393 90.7759 176.694 88.5068 175.298C86.2377 173.902 84.6013 171.916 83.5977 169.342C82.6377 166.724 82.1577 163.604 82.1577 159.982V140.215C82.1577 136.593 82.6377 133.495 83.5977 130.92C84.6013 128.345 86.2377 126.382 88.5068 125.029C90.7759 123.676 93.8522 123 97.7359 123C101.663 123 104.761 123.698 107.03 125.095C109.343 126.447 110.979 128.411 111.939 130.985C112.943 133.516 113.445 136.593 113.445 140.215V159.982C113.445 163.604 112.943 166.724 111.939 169.342C110.979 171.916 109.343 173.902 107.03 175.298C104.761 176.694 101.663 177.393 97.7359 177.393ZM97.7359 169.604C99.1322 169.604 100.158 169.298 100.812 168.687C101.467 168.033 101.903 167.182 102.121 166.134C102.339 165.044 102.449 163.887 102.449 162.665V137.596C102.449 136.375 102.339 135.24 102.121 134.193C101.903 133.145 101.467 132.316 100.812 131.705C100.158 131.051 99.1322 130.724 97.7359 130.724C96.4268 130.724 95.445 131.051 94.7904 131.705C94.1359 132.316 93.6995 133.145 93.4813 134.193C93.2631 135.24 93.1541 136.375 93.1541 137.596V162.665C93.1541 163.887 93.2413 165.044 93.4159 166.134C93.6341 167.182 94.0704 168.033 94.725 168.687C95.3795 169.298 96.3831 169.604 97.7359 169.604Z" fill="white"/>
<path d="M54.2429 176.673V123.655H77.3483V131.117H65.0429V145.189H74.5338V152.717H65.0429V169.342H77.4792V176.673H54.2429Z" fill="white"/>
<path d="M18 176.673V123.655H25.5273L37.3091 151.277V123.655H46.2109V176.673H39.0109L27.2291 147.349V176.673H18Z" fill="white"/>
</svg>
